<svg width="20" height="20" viewBox="0 0 20 20" fill="none" xmlns="http://www.w3.org/2000/svg">
<g id="add_bold">
<rect width="20" height="20" rx="4" fill="#EBEEF6"/>
<mask id="mask0_1_146" style="mask-type:alpha" maskUnits="userSpaceOnUse" x="0" y="0" width="20" height="20">
<rect id="Bounding box" width="20" height="20" fill="#D9D9D9"/>
</mask>
<g mask="url(#mask0_1_146)">
<path id="add" d="M10.0007 15.9486C9.73465 15.9486 9.51017 15.8571 9.32719 15.6741C9.14422 15.4911 9.05273 15.2667 9.05273 15.0007V10.9486H5.00065C4.73465 10.9486 4.51016 10.8571 4.32719 10.6741C4.14422 10.4911 4.05273 10.2667 4.05273 10.0007C4.05273 9.73465 4.14422 9.51017 4.32719 9.32719C4.51016 9.14422 4.73465 9.05273 5.00065 9.05273H9.05273V5.00065C9.05273 4.73465 9.14422 4.51017 9.32719 4.32719C9.51017 4.14422 9.73465 4.05273 10.0007 4.05273C10.2667 4.05273 10.4911 4.14422 10.6741 4.32719C10.8571 4.51017 10.9486 4.73465 10.9486 5.00065V9.05273H15.0007C15.2667 9.05273 15.4911 9.14422 15.6741 9.32719C15.8571 9.51017 15.9486 9.73465 15.9486 10.0007C15.9486 10.2667 15.8571 10.4911 15.6741 10.6741C15.4911 10.8571 15.2667 10.9486 15.0007 10.9486H10.9486V15.0007C10.9486 15.2667 10.8571 15.4911 10.6741 15.6741C10.4911 15.8571 10.2667 15.9486 10.0007 15.9486Z" fill="#3D8FEC"/>
</g>
</g>
</svg>
